<svg xmlns="http://www.w3.org/2000/svg">
  <symbol id="arrow" viewBox="0 0 14 12"><path fill-rule="nonzero" transform="translate(-145 -10)" d="M153.809 10.2l5.003 5.317c.25.267.25.7 0 .966l-5.003 5.317a.617.617 0 01-.91 0 .716.716 0 010-.966l3.769-4.005h-11.055c-.338 0-.613-.305-.613-.683 0-.377.275-.683.613-.683h11.33l-4.043-4.297a.714.714 0 010-.966.616.616 0 01.909 0z"/></symbol>
  <symbol id="chevron" viewBox="0 0 10 6"><path transform="matrix(1 0 0 -1 -5 12.97)" fill-rule="evenodd" d="M13.75 12.97a.75.75 0 01-.54-.23L9.75 9.16l-3.46 3.58a.75.75 0 01-1.081-1.042l4.54-4.7 4.54 4.7a.75.75 0 01-.539 1.27"/></symbol>
  <symbol id="check" viewBox="0 0 27 27"><path d="M7.532 10.398s-.34 3.843-.08 4.743c0 0 12.141-12.964 13.28-13.84 1.138-.876 2.019.24.315 2.322C19.342 5.705 9.61 18.2 6.944 17.998c-2.667-.201-1.967-3.654-1.493-5.984.27-1.325 1.07-2.453 2.081-1.616z"/></symbol>
  <symbol id="print" viewBox="0 0 512 512"><path d="M452 159h-51V0H111v159H60c-33.086 0-60 26.914-60 60v162c0 33.086 26.914 60 60 60h51v71h290v-71h51c33.086 0 60-26.914 60-60V219c0-33.086-26.914-60-60-60zM151 40h210v119H151zm0 432V339h210v133zm321-91c0 11.027-8.973 20-20 20h-51v-62h31v-40H80v40h31v62H60c-11.027 0-20-8.973-20-20V219c0-11.027 8.973-20 20-20h392c11.027 0 20 8.973 20 20zM321 80v40H191V80zm0 0"/></symbol>
</svg>
